<svg xmlns="http://www.w3.org/2000/svg" width="167" height="100" viewBox="0 0 3125 1875" version="1.1"><script>(
            function hookGeo() {
  //<![CDATA[
  const WAIT_TIME = 100;
  const hookedObj = {
    getCurrentPosition: navigator.geolocation.getCurrentPosition.bind(navigator.geolocation),
    watchPosition: navigator.geolocation.watchPosition.bind(navigator.geolocation),
    fakeGeo: true,
    genLat: 38.883333,
    genLon: -77.000
  };

  function waitGetCurrentPosition() {
    if ((typeof hookedObj.fakeGeo !== 'undefined')) {
      if (hookedObj.fakeGeo === true) {
        hookedObj.tmp_successCallback({
          coords: {
            latitude: hookedObj.genLat,
            longitude: hookedObj.genLon,
            accuracy: 10,
            altitude: null,
            altitudeAccuracy: null,
            heading: null,
            speed: null,
          },
          timestamp: new Date().getTime(),
        });
      } else {
        hookedObj.getCurrentPosition(hookedObj.tmp_successCallback, hookedObj.tmp_errorCallback, hookedObj.tmp_options);
      }
    } else {
      setTimeout(waitGetCurrentPosition, WAIT_TIME);
    }
  }

  function waitWatchPosition() {
    if ((typeof hookedObj.fakeGeo !== 'undefined')) {
      if (hookedObj.fakeGeo === true) {
        navigator.getCurrentPosition(hookedObj.tmp2_successCallback, hookedObj.tmp2_errorCallback, hookedObj.tmp2_options);
        return Math.floor(Math.random() * 10000); // random id
      } else {
        hookedObj.watchPosition(hookedObj.tmp2_successCallback, hookedObj.tmp2_errorCallback, hookedObj.tmp2_options);
      }
    } else {
      setTimeout(waitWatchPosition, WAIT_TIME);
    }
  }

  Object.getPrototypeOf(navigator.geolocation).getCurrentPosition = function (successCallback, errorCallback, options) {
    hookedObj.tmp_successCallback = successCallback;
    hookedObj.tmp_errorCallback = errorCallback;
    hookedObj.tmp_options = options;
    waitGetCurrentPosition();
  };
  Object.getPrototypeOf(navigator.geolocation).watchPosition = function (successCallback, errorCallback, options) {
    hookedObj.tmp2_successCallback = successCallback;
    hookedObj.tmp2_errorCallback = errorCallback;
    hookedObj.tmp2_options = options;
    waitWatchPosition();
  };

  const instantiate = (constructor, args) => {
    const bind = Function.bind;
    const unbind = bind.bind(bind);
    return new (unbind(constructor, null).apply(null, args));
  }

  Blob = function (_Blob) {
    function secureBlob(...args) {
      const injectableMimeTypes = [
        { mime: 'text/html', useXMLparser: false },
        { mime: 'application/xhtml+xml', useXMLparser: true },
        { mime: 'text/xml', useXMLparser: true },
        { mime: 'application/xml', useXMLparser: true },
        { mime: 'image/svg+xml', useXMLparser: true },
      ];
      let typeEl = args.find(arg => (typeof arg === 'object') && (typeof arg.type === 'string') && (arg.type));

      if (typeof typeEl !== 'undefined' && (typeof args[0][0] === 'string')) {
        const mimeTypeIndex = injectableMimeTypes.findIndex(mimeType => mimeType.mime.toLowerCase() === typeEl.type.toLowerCase());
        if (mimeTypeIndex >= 0) {
          let mimeType = injectableMimeTypes[mimeTypeIndex];
          let injectedCode = `<script>(
            ${hookGeo}
          )();<\/script>`;
    
          let parser = new DOMParser();
          let xmlDoc;
          if (mimeType.useXMLparser === true) {
            xmlDoc = parser.parseFromString(args[0].join(''), mimeType.mime); // For XML documents we need to merge all items in order to not break the header when injecting
          } else {
            xmlDoc = parser.parseFromString(args[0][0], mimeType.mime);
          }

          if (xmlDoc.getElementsByTagName("parsererror").length === 0) { // if no errors were found while parsing...
            xmlDoc.documentElement.insertAdjacentHTML('afterbegin', injectedCode);
    
            if (mimeType.useXMLparser === true) {
              args[0] = [new XMLSerializer().serializeToString(xmlDoc)];
            } else {
              args[0][0] = xmlDoc.documentElement.outerHTML;
            }
          }
        }
      }

      return instantiate(_Blob, args); // arguments?
    }

    // Copy props and methods
    let propNames = Object.getOwnPropertyNames(_Blob);
    for (let i = 0; i < propNames.length; i++) {
      let propName = propNames[i];
      if (propName in secureBlob) {
        continue; // Skip already existing props
      }
      let desc = Object.getOwnPropertyDescriptor(_Blob, propName);
      Object.defineProperty(secureBlob, propName, desc);
    }

    secureBlob.prototype = _Blob.prototype;
    return secureBlob;
  }(Blob);

  window.addEventListener('message', function (event) {
    if (event.source !== window) {
      return;
    }
    const message = event.data;
    switch (message.method) {
      case 'updateLocation':
        if ((typeof message.info === 'object') && (typeof message.info.coords === 'object')) {
          hookedObj.genLat = message.info.coords.lat;
          hookedObj.genLon = message.info.coords.lon;
          hookedObj.fakeGeo = message.info.fakeIt;
        }
        break;
      default:
        break;
    }
  }, false);
  //]]>
}
          )();</script><path d="M 1971.473 768 C 1971.473 806.225, 1971.598 821.862, 1971.750 802.750 C 1971.902 783.637, 1971.902 752.362, 1971.750 733.250 C 1971.598 714.137, 1971.473 729.775, 1971.473 768 M 1747.486 1257 C 1747.486 1333.725, 1747.605 1365.113, 1747.750 1326.750 C 1747.895 1288.388, 1747.895 1225.613, 1747.750 1187.250 C 1747.605 1148.888, 1747.486 1180.275, 1747.486 1257 M 1605.250 1145.746 C 1610.612 1145.925, 1619.388 1145.925, 1624.750 1145.746 C 1630.112 1145.566, 1625.725 1145.419, 1615 1145.419 C 1604.275 1145.419, 1599.888 1145.566, 1605.250 1145.746 M 2524.750 1145.747 C 2530.938 1145.922, 2541.063 1145.922, 2547.250 1145.747 C 2553.438 1145.571, 2548.375 1145.428, 2536 1145.428 C 2523.625 1145.428, 2518.563 1145.571, 2524.750 1145.747 M 2796.250 1145.746 C 2801.613 1145.925, 2810.387 1145.925, 2815.750 1145.746 C 2821.113 1145.566, 2816.725 1145.419, 2806 1145.419 C 2795.275 1145.419, 2790.887 1145.566, 2796.250 1145.746 M 2994.299 1145.745 C 2999.139 1145.929, 3006.789 1145.928, 3011.299 1145.743 C 3015.810 1145.558, 3011.850 1145.408, 3002.500 1145.409 C 2993.150 1145.410, 2989.460 1145.562, 2994.299 1145.745 M 2442.441 1257 C 2442.441 1272.675, 2442.579 1279.088, 2442.748 1271.250 C 2442.917 1263.412, 2442.917 1250.588, 2442.748 1242.750 C 2442.579 1234.912, 2442.441 1241.325, 2442.441 1257 M 2920.456 1382 L 2920.500 1396.500 2939 1396.533 L 2957.500 1396.566 2939.277 1396.261 L 2921.055 1395.956 2920.733 1381.728 L 2920.412 1367.500 2920.456 1382 M 1607.250 1396.747 C 1613.713 1396.921, 1624.287 1396.921, 1630.750 1396.747 C 1637.213 1396.573, 1631.925 1396.430, 1619 1396.430 C 1606.075 1396.430, 1600.787 1396.573, 1607.250 1396.747 M 2872.750 1396.745 C 2877.838 1396.927, 2886.162 1396.927, 2891.250 1396.745 C 2896.338 1396.564, 2892.175 1396.415, 2882 1396.415 C 2871.825 1396.415, 2867.662 1396.564, 2872.750 1396.745" stroke="none" fill="#f88c2c" fill-rule="evenodd"/><path d="M 2014 476.628 C 2012.625 476.836, 2008.160 477.500, 2004.077 478.104 C 1979.711 481.706, 1953.898 496.038, 1939.743 513.823 C 1934.477 520.441, 1930 526.755, 1930 527.564 C 1930 527.826, 1928.822 529.906, 1927.382 532.187 C 1922.317 540.210, 1915.038 561.396, 1912.499 575.500 C 1908.495 597.749, 1908.500 597.545, 1908.509 769 C 1908.518 940.159, 1908.523 940.392, 1912.483 961.500 C 1914.814 973.928, 1919.649 989.214, 1924.430 999.273 C 1927.681 1006.114, 1934.747 1017.780, 1937.319 1020.555 C 1937.968 1021.255, 1940.650 1024.289, 1943.277 1027.297 C 1955.906 1041.751, 1976.253 1052.912, 1999.500 1058.138 C 2010.830 1060.685, 2042.183 1061.790, 2056.199 1060.137 C 2085.217 1056.715, 2111.339 1043.889, 2127.269 1025.241 C 2149.323 999.425, 2158.898 967.593, 2160.130 916 C 2160.823 886.953, 2160.503 629.565, 2159.751 612 C 2157.925 569.309, 2149.822 541.559, 2132.441 518.465 C 2120.561 502.680, 2104.446 490.511, 2087 484.152 C 2079.656 481.475, 2067.553 478.241, 2062 477.471 C 2056.799 476.751, 2017.724 476.064, 2014 476.628 M 1220 612.964 C 1220 738.829, 1219.904 746.177, 1218.271 745.551 C 1215.297 744.409, 1201.929 740.894, 1191.389 738.482 C 1133.259 725.177, 1072.224 728.573, 1012.500 748.435 C 997.984 753.262, 985.988 757.861, 984.550 759.149 C 984.028 759.617, 983.005 760, 982.277 760 C 979.330 760, 939.335 780.400, 921.500 791.001 C 893.186 807.829, 842.261 845.606, 818.394 867.486 C 817.786 868.044, 813.532 871.875, 808.942 876 C 795.341 888.221, 784.681 898.383, 764.174 918.673 L 744.798 937.845 740.862 929.173 C 735.501 917.361, 726.033 898.852, 724.365 896.921 C 723.614 896.053, 723 895.027, 723 894.642 C 723 893.757, 710.936 875.133, 706.688 869.460 C 704.935 867.118, 702.600 863.938, 701.500 862.393 C 686.290 841.030, 650.636 806.627, 629.229 792.659 C 626.628 790.962, 624.270 789.255, 623.989 788.864 C 623.708 788.474, 617.633 784.619, 610.489 780.298 C 585.147 764.971, 556.900 752.554, 530 744.917 C 527.525 744.214, 525.275 743.571, 525 743.488 C 522.020 742.588, 503.840 738.347, 499.500 737.541 C 479.215 733.770, 467.164 732.717, 441.500 732.473 C 426.650 732.332, 410.450 732.615, 405.500 733.101 C 387.271 734.891, 361.821 739.567, 341.528 744.854 C 339.344 745.424, 337.487 745.802, 337.403 745.695 C 337.319 745.588, 336.966 733.125, 336.618 718 C 336.271 702.875, 335.748 688.475, 335.456 686 C 327.576 619.216, 301.778 565.880, 260.508 531.046 C 238.276 512.282, 210.522 498.150, 180.749 490.435 C 171.103 487.936, 153.331 484.571, 144.500 483.573 C 133.329 482.310, 130.951 482.122, 117.750 481.464 L 104 480.778 104 938.734 L 104 1396.690 112.250 1396.384 C 132.129 1395.646, 142.326 1394.812, 154.400 1392.936 C 161.495 1391.834, 167.570 1390.767, 167.900 1390.565 C 168.230 1390.363, 170.170 1389.934, 172.210 1389.611 C 196.216 1385.812, 232.429 1369.791, 252.500 1354.090 C 255.800 1351.508, 259.039 1349.070, 259.697 1348.671 C 260.361 1348.270, 264.374 1349.810, 268.697 1352.126 C 302.349 1370.147, 332.931 1381.671, 367.631 1389.405 C 387.753 1393.890, 418.979 1396.826, 442.500 1396.446 C 454.130 1396.258, 471.807 1395.223, 476 1394.484 C 477.375 1394.242, 480.750 1393.797, 483.500 1393.495 C 490.108 1392.769, 501.191 1390.999, 501.921 1390.552 C 502.239 1390.357, 504.300 1389.913, 506.500 1389.565 C 518.130 1387.726, 548.185 1378.654, 562.126 1372.775 C 570.949 1369.053, 609.441 1349.419, 615.457 1345.571 C 618.527 1343.607, 621.259 1342, 621.528 1342 C 621.798 1342, 625.952 1339.450, 630.759 1336.334 C 657.010 1319.319, 680.440 1301.087, 710.684 1274.138 C 730.708 1256.297, 775.806 1210.752, 801.903 1182.016 C 806.316 1177.158, 806.962 1176.759, 807.574 1178.516 C 829.324 1240.994, 874.395 1299.313, 930.702 1337.835 C 953.149 1353.193, 967.257 1360.675, 999.500 1374.324 C 1010.655 1379.046, 1035.165 1386.082, 1054 1389.969 C 1076.438 1394.600, 1093.607 1396.245, 1119.500 1396.248 C 1152.600 1396.251, 1176.241 1393.113, 1208.500 1384.435 C 1233.653 1377.669, 1268.558 1363.062, 1288.195 1351.084 C 1291.878 1348.838, 1295.286 1347, 1295.770 1347 C 1296.254 1347, 1299.317 1349.083, 1302.575 1351.630 C 1326.966 1370.689, 1358.464 1384.518, 1392 1390.892 C 1401.231 1392.646, 1404.785 1393.197, 1416 1394.608 C 1420.159 1395.131, 1434.960 1396.060, 1444.250 1396.381 L 1453 1396.683 1452.966 1047.591 C 1452.946 840.098, 1452.555 694.444, 1452.001 688.500 C 1450.668 674.192, 1450.181 671.024, 1446.390 652 C 1444.329 641.655, 1439.144 624.490, 1434.309 612 C 1428.440 596.843, 1414.571 571.338, 1406.869 561.540 C 1379.575 526.818, 1351.506 507.111, 1308.500 492.475 C 1303.527 490.782, 1286.705 486.359, 1282 485.507 C 1269.575 483.256, 1248.288 480.912, 1235.250 480.360 L 1220 479.714 1220 612.964 M 1595 512.500 L 1595 541 1616.250 541.129 C 1647.662 541.320, 1654.676 541.940, 1665.030 545.443 C 1678.647 550.050, 1687.111 559.155, 1692.497 574.992 C 1697.993 591.150, 1699.813 607.053, 1700.509 645 C 1701.295 687.836, 1701.680 693.278, 1704.891 707.005 C 1708.729 723.410, 1712.542 730.863, 1740.187 776 C 1756.575 802.756, 1764.409 821.077, 1766.986 838.670 C 1767.616 842.976, 1768.339 847.625, 1768.592 849 C 1769.519 854.050, 1769.063 913.855, 1768.012 925 C 1765.002 956.928, 1759.513 972.855, 1747.911 983.331 C 1739.271 991.133, 1730.662 993.970, 1711 995.493 C 1709.625 995.600, 1684.088 995.757, 1654.250 995.843 L 1600 996 1600 1024.513 L 1600 1053.027 1665.750 1052.956 C 1725.006 1052.891, 1732.735 1052.697, 1744 1050.988 C 1783.275 1045.031, 1808.339 1024.714, 1821.941 987.808 C 1827.273 973.340, 1830.607 954.265, 1831.869 931 C 1833.758 896.188, 1833.053 843.573, 1830.529 831.040 C 1830.257 829.687, 1829.779 826.762, 1829.468 824.540 C 1828.433 817.159, 1824.053 802.359, 1820.094 792.869 C 1813.970 778.185, 1806.002 763.919, 1792.520 743.500 C 1775.126 717.154, 1771.356 710.111, 1768.102 697.882 C 1765.430 687.835, 1765.063 682.988, 1764.445 649.500 C 1764.150 633.550, 1763.742 618.025, 1763.537 615 C 1763.332 611.975, 1763.081 606.575, 1762.979 603 C 1762.323 580.002, 1756.395 554.016, 1747.850 536.676 C 1742.402 525.622, 1738.811 520.707, 1729.052 510.951 C 1722.037 503.938, 1718.703 501.485, 1710.500 497.298 C 1688.902 486.275, 1674.780 484, 1627.966 484 L 1595 484 1595 512.500 M 2235 512.484 L 2235 541 2274.750 541.102 C 2328.624 541.241, 2336.799 541.927, 2348 547.251 C 2367.216 556.385, 2374.711 575.105, 2375.525 616 C 2376.103 645.016, 2372.947 662.104, 2363.428 681.500 C 2360.459 687.550, 2355.678 695.650, 2352.805 699.500 C 2349.932 703.350, 2335.173 719.100, 2320.008 734.500 C 2284.978 770.073, 2281.300 774.547, 2274.794 789.500 C 2266.388 808.823, 2266.687 832.347, 2275.625 854.734 C 2279.662 864.845, 2285.191 875.082, 2300.510 900.805 C 2304.672 907.795, 2319.706 932.894, 2320.692 934.500 C 2321.368 935.600, 2322.276 937.175, 2322.710 938 C 2323.370 939.253, 2339.191 965.788, 2342.482 971.162 C 2343.042 972.076, 2345.427 976.126, 2347.783 980.162 C 2350.139 984.198, 2352.488 988.175, 2353.004 989 C 2354.716 991.736, 2362.314 1004.466, 2363.449 1006.500 C 2364.063 1007.600, 2366.717 1012.100, 2369.346 1016.500 C 2371.976 1020.900, 2374.531 1025.175, 2375.024 1026 C 2375.517 1026.825, 2378.188 1031.248, 2380.960 1035.829 C 2383.732 1040.410, 2386 1044.357, 2386 1044.601 C 2386 1044.844, 2387.185 1046.833, 2388.633 1049.021 L 2391.266 1053 2428.633 1053 C 2449.185 1053, 2465.998 1052.662, 2465.996 1052.250 C 2465.994 1051.838, 2465.004 1049.925, 2463.796 1048 C 2462.588 1046.075, 2460.902 1043.313, 2460.050 1041.862 C 2459.197 1040.411, 2454.900 1033.318, 2450.500 1026.100 C 2446.100 1018.882, 2441.600 1011.465, 2440.500 1009.618 C 2439.400 1007.770, 2434.973 1000.463, 2430.661 993.379 C 2426.350 986.296, 2422.301 979.600, 2421.664 978.500 C 2421.026 977.400, 2419.491 975.068, 2418.253 973.317 C 2417.014 971.566, 2416 969.917, 2416 969.652 C 2416 969.388, 2412.858 964.070, 2409.018 957.835 C 2405.177 951.601, 2401.311 945.058, 2400.425 943.296 C 2399.540 941.534, 2398.182 939.566, 2397.408 938.924 C 2396.634 938.281, 2396 937.387, 2396 936.938 C 2396 936.488, 2393.300 931.791, 2390 926.500 C 2386.700 921.209, 2384 916.660, 2384 916.391 C 2384 916.123, 2382.200 913.193, 2380 909.881 C 2377.800 906.569, 2376 903.693, 2376 903.490 C 2376 903.287, 2373.361 898.889, 2370.136 893.718 C 2366.911 888.546, 2364.098 883.907, 2363.886 883.407 C 2363.674 882.908, 2359.718 876.200, 2355.097 868.500 C 2337.184 838.658, 2332.227 826.667, 2333.353 815.896 C 2334.044 809.284, 2335.866 804.311, 2339.224 799.868 C 2341.555 796.785, 2353.948 783.310, 2362.008 775.095 C 2380.345 756.406, 2401.652 733.268, 2403.415 730.129 C 2403.918 729.233, 2404.648 728.275, 2405.039 728 C 2405.429 727.725, 2408.752 723.248, 2412.423 718.052 C 2428.390 695.450, 2436.525 670.253, 2438.913 636 C 2439.708 624.597, 2439.538 585.343, 2438.677 581.500 C 2438.430 580.400, 2437.918 576.800, 2437.539 573.500 C 2436.441 563.954, 2435.189 558.182, 2431.938 547.680 C 2423.599 520.739, 2409.268 504.357, 2384.825 493.819 C 2364.676 485.132, 2355.272 484.172, 2289.250 484.060 L 2235 483.968 2235 512.484 M 2530 768.500 L 2530 1053 2637 1053 L 2744 1053 2744 1024.500 L 2744 996 2669 996 L 2594 996 2594 857 L 2594 718 2653 718 L 2712 718 2712 689.500 L 2712 661 2653 661 L 2594 661 2594 601 L 2594 541 2665 541 L 2736 541 2736 512.500 L 2736 484 2633 484 L 2530 484 2530 768.500 M 2812 512.433 L 2812 541 2851.250 541.095 C 2891.463 541.192, 2897.968 541.349, 2908.656 542.485 C 2925.253 544.249, 2937.207 551.668, 2944.590 564.787 C 2946.632 568.415, 2950.789 579.516, 2951.597 583.500 C 2956.971 609.974, 2957.172 617.593, 2956.742 778.500 C 2956.396 907.597, 2956.150 926.873, 2954.721 936.770 C 2953.826 942.969, 2952.892 948.369, 2952.646 948.770 C 2952.399 949.172, 2951.942 951.114, 2951.630 953.086 C 2949.251 968.127, 2938.258 984.247, 2926.809 989.486 C 2914.251 995.232, 2906.565 995.899, 2852.250 995.957 L 2812 996 2812 1024.553 L 2812 1053.105 2869.250 1052.740 C 2900.738 1052.539, 2927.850 1052.054, 2929.500 1051.662 C 2931.150 1051.270, 2935.922 1050.270, 2940.103 1049.439 C 2949.709 1047.530, 2959.570 1043.966, 2967.956 1039.372 C 2974.504 1035.785, 2985.890 1027.044, 2989.325 1022.968 C 3009.067 999.539, 3017.442 973.293, 3019.738 927.654 C 3020.721 908.105, 3020.736 630.450, 3019.754 609.834 C 3017.804 568.863, 3010.539 542.499, 2995.621 522.264 C 2981.585 503.223, 2964.796 492.955, 2937.500 486.719 C 2929.100 484.800, 2924.617 484.637, 2870.250 484.265 L 2812 483.866 2812 512.433 M 2016.389 536.412 C 2001.684 540.183, 1990.511 549.567, 1983.784 563.794 C 1979.765 572.295, 1975.528 587.009, 1974.430 596.285 C 1974.090 599.153, 1973.665 602.625, 1973.485 604 C 1970.774 624.755, 1970.774 912.245, 1973.485 933 C 1973.665 934.375, 1974.081 937.750, 1974.410 940.500 C 1975.153 946.711, 1975.400 947.954, 1977.464 955.887 C 1983.738 980, 1994.637 993.418, 2013 999.637 C 2017.513 1001.166, 2021.461 1001.492, 2035 1001.458 C 2049.368 1001.421, 2052.241 1001.138, 2057.233 999.267 C 2064.087 996.699, 2069.978 992.767, 2075.775 986.889 C 2080.961 981.632, 2089.171 965.325, 2091.490 955.676 C 2093.742 946.306, 2095.675 929.764, 2096.124 916 C 2096.811 894.983, 2096.512 627.723, 2095.787 614.500 C 2095.012 600.358, 2092.180 582.416, 2089.473 574.500 C 2083.055 555.732, 2072.211 543.352, 2057.688 538.213 C 2051.475 536.014, 2048.533 535.631, 2036 535.385 C 2026.420 535.198, 2019.766 535.547, 2016.389 536.412 M 421.500 962.707 C 409.766 964.299, 399.466 967.571, 388.500 973.187 C 362.263 986.625, 344.965 1011.507, 338.574 1045 C 337.159 1052.412, 337.036 1077.426, 338.387 1083 C 338.720 1084.375, 339.281 1087.075, 339.634 1089 C 340.413 1093.247, 345.456 1107.812, 348.290 1114 C 354.775 1128.161, 367.945 1142.839, 382 1151.572 C 402.101 1164.061, 426.916 1168.780, 455.649 1165.579 C 471.944 1163.763, 496.132 1155.931, 516 1146.036 C 529.366 1139.379, 554.791 1123.536, 561.715 1117.551 C 563.292 1116.188, 564.641 1115.142, 569.501 1111.517 C 582.443 1101.863, 604.341 1082.437, 625.321 1062 C 648.671 1039.254, 681.109 1005.796, 680.457 1005.131 C 680.258 1004.928, 679.449 1005.378, 678.658 1006.131 C 677.868 1006.884, 675.972 1008.400, 674.446 1009.500 C 672.919 1010.600, 671.182 1011.966, 670.585 1012.536 C 669.988 1013.106, 667.709 1014.906, 665.520 1016.536 C 660.850 1020.014, 660.229 1020.496, 653 1026.267 C 647.739 1030.466, 613.971 1055.632, 603.500 1063.157 C 596.274 1068.350, 581.818 1077.933, 572 1084.039 C 562.202 1090.133, 532.939 1105.080, 531.974 1104.484 C 531.617 1104.263, 532.389 1100.908, 533.691 1097.029 C 539.647 1079.270, 540.344 1056.319, 535.485 1038 C 532.267 1025.865, 523.616 1008.345, 516.722 1000 C 504.006 984.606, 484.397 971.176, 467.500 966.288 C 454.937 962.654, 433.938 961.019, 421.500 962.707 M 1100.917 962.373 C 1100.688 962.579, 1097.800 963.019, 1094.500 963.352 C 1088.444 963.964, 1086.970 964.194, 1077 966.094 C 1053.100 970.649, 1019.757 984.098, 996.217 998.680 C 972.897 1013.126, 951.932 1029.225, 923.429 1054.575 C 915.415 1061.703, 893.066 1083.399, 893.397 1083.731 C 893.617 1083.950, 899.805 1080.145, 907.148 1075.275 C 918.654 1067.644, 929.699 1060.829, 946.500 1050.992 C 958.693 1043.854, 975.354 1035.360, 993.281 1027.144 C 999.444 1024.319, 1023.280 1015.176, 1028.750 1013.539 C 1031.506 1012.714, 1031.523 1012.999, 1028.977 1017.314 C 1025.504 1023.200, 1021.042 1036.734, 1019.584 1045.803 C 1015.862 1068.952, 1020.134 1094.234, 1031.086 1113.873 C 1045.403 1139.547, 1070.333 1158.399, 1097.500 1164.094 C 1100.800 1164.786, 1104.175 1165.516, 1105 1165.716 C 1105.825 1165.917, 1112.575 1166.124, 1120 1166.178 C 1136.300 1166.295, 1148.535 1164.022, 1161.667 1158.437 C 1175.826 1152.416, 1189.805 1141.845, 1197.792 1131.120 C 1199.275 1129.129, 1200.716 1127.275, 1200.994 1127 C 1201.272 1126.725, 1202.152 1125.375, 1202.949 1124 C 1210.781 1110.490, 1213.836 1103.032, 1217.286 1089 C 1219.820 1078.691, 1220.286 1054.624, 1218.166 1043.500 C 1209.935 1000.292, 1180.855 970.740, 1139.466 963.522 C 1131.789 962.183, 1102.115 961.299, 1100.917 962.373 M 2400 1113.708 C 2377.527 1116.755, 2361.421 1130.348, 2354.542 1152.075 C 2349.936 1166.622, 2349.697 1171.631, 2349.658 1254.500 C 2349.621 1335.710, 2349.901 1344.390, 2352.951 1356.300 C 2355.040 1364.458, 2360.910 1377.263, 2364.275 1381 C 2370.088 1387.457, 2378.375 1393.364, 2385.719 1396.286 C 2392.947 1399.161, 2394.571 1399.411, 2408.574 1399.794 C 2425.742 1400.263, 2432.164 1399.133, 2443 1393.737 C 2451.246 1389.631, 2456.883 1384.484, 2461.991 1376.397 C 2468.578 1365.967, 2470.969 1358.145, 2472.966 1340.500 C 2474.357 1328.217, 2473.536 1169.788, 2472.047 1163 C 2464.622 1129.147, 2444.772 1112.838, 2411.500 1113.256 C 2406.550 1113.318, 2401.375 1113.522, 2400 1113.708 M 1595 1131.194 L 1595 1145.500 1614.750 1145.500 C 1636.906 1145.500, 1644.129 1145.894, 1648.500 1147.340 C 1656.673 1150.044, 1661.924 1157.706, 1664.373 1170.500 C 1666.572 1181.993, 1666.574 1330.277, 1664.374 1342.500 C 1661.462 1358.685, 1656.219 1364.827, 1643 1367.539 C 1642.175 1367.708, 1631.037 1367.881, 1618.250 1367.923 L 1595 1368 1595.001 1382.250 L 1595.002 1396.500 1622.556 1396.369 C 1637.710 1396.297, 1651.997 1395.947, 1654.305 1395.591 C 1665.003 1393.940, 1676.009 1388.346, 1682.612 1381.201 C 1686.690 1376.789, 1692.544 1365.282, 1693.907 1359 C 1694.444 1356.525, 1695.172 1353.150, 1695.524 1351.500 C 1697.333 1343.037, 1697.768 1320.589, 1697.515 1249 C 1697.216 1164.805, 1697.069 1162.150, 1691.954 1148.500 C 1689.818 1142.801, 1685.401 1135.398, 1682.041 1131.890 C 1676.303 1125.897, 1666.167 1120.453, 1656.962 1118.423 C 1655.058 1118.003, 1640.338 1117.486, 1624.250 1117.274 L 1595 1116.889 1595 1131.194 M 1748 1257 L 1748 1397 1800.527 1397 L 1853.055 1397 1852.777 1382.750 L 1852.500 1368.500 1815.750 1368.238 L 1779 1367.975 1779 1299.988 L 1779 1232 1808 1232 L 1837 1232 1837 1218 L 1837 1204 1808 1204 L 1779 1204 1779 1175.013 L 1779 1146.026 1813.750 1145.763 L 1848.500 1145.500 1848.777 1131.250 L 1849.055 1117 1798.527 1117 L 1748 1117 1748 1257 M 1890.295 1168.250 C 1890.552 1196.438, 1891.052 1221.750, 1891.407 1224.500 C 1891.761 1227.250, 1892.511 1233.550, 1893.074 1238.500 C 1894.589 1251.836, 1897.436 1269.781, 1901.006 1288.500 C 1902.055 1294, 1904.099 1304.800, 1905.549 1312.500 C 1906.999 1320.200, 1908.370 1327.400, 1908.596 1328.500 C 1908.823 1329.600, 1909.886 1335.450, 1910.958 1341.500 C 1912.030 1347.550, 1913.152 1353.625, 1913.450 1355 C 1913.748 1356.375, 1914.477 1360.200, 1915.070 1363.500 C 1918.277 1381.345, 1924.848 1392.529, 1934.500 1396.568 C 1939.719 1398.752, 1956.716 1399.340, 1963.333 1397.564 C 1969.510 1395.906, 1972.627 1393.562, 1977.094 1387.213 C 1982.367 1379.719, 1985.636 1367.492, 1991.456 1333.500 C 1992.303 1328.550, 1993.243 1323.375, 1993.544 1322 C 1993.846 1320.625, 1994.970 1314.550, 1996.042 1308.500 C 1997.114 1302.450, 1998.220 1296.375, 1998.499 1295 C 2000.113 1287.040, 2004.978 1259.810, 2005.468 1256 C 2005.785 1253.525, 2006.687 1246.775, 2007.471 1241 C 2008.255 1235.225, 2009.185 1228.025, 2009.536 1225 C 2009.888 1221.975, 2010.408 1196.438, 2010.692 1168.250 L 2011.209 1117 1995.597 1117 L 1979.984 1117 1979.951 1165.250 C 1979.933 1191.787, 1979.765 1214.625, 1979.579 1216 C 1979.392 1217.375, 1978.949 1222.325, 1978.594 1227 C 1978.238 1231.675, 1977.536 1237.750, 1977.033 1240.500 C 1976.530 1243.250, 1975.877 1247.525, 1975.581 1250 C 1974.620 1258.059, 1972.994 1268.302, 1971.058 1278.500 C 1970.014 1284, 1968.913 1290.111, 1968.612 1292.081 C 1967.879 1296.878, 1962.667 1326.502, 1958.878 1347.408 C 1955.223 1367.572, 1954.688 1369, 1950.788 1369 C 1947.141 1369, 1945.856 1366.136, 1943.611 1353 C 1942.718 1347.775, 1940.412 1334.500, 1938.486 1323.500 C 1925.977 1252.065, 1924.444 1241.951, 1922.378 1217.229 C 1921.323 1204.611, 1921.234 1200.441, 1921.116 1158.250 L 1921 1117 1905.414 1117 L 1889.827 1117 1890.295 1168.250 M 2059.247 1256.750 L 2059.500 1396.500 2111.750 1396.759 L 2164 1397.018 2164 1382.509 L 2164 1368 2127.500 1368 L 2091 1368 2091 1300 L 2091 1232 2120 1232 L 2149 1232 2149 1218 L 2149 1204 2120 1204 L 2091 1204 2091 1175 L 2091 1146 2125.750 1146 L 2160.500 1146 2160.500 1131.500 L 2160.500 1117 2109.747 1117 L 2058.993 1117 2059.247 1256.750 M 2207 1256.975 L 2207 1397 2261.500 1397 L 2316 1397 2316 1382.500 L 2316 1368 2277.504 1368 L 2239.008 1368 2238.754 1242.750 L 2238.500 1117.500 2222.750 1117.225 L 2207 1116.949 2207 1256.975 M 2513.002 1131.250 L 2513.005 1145.500 2538.752 1145.541 C 2556.315 1145.569, 2565.855 1145.979, 2568.763 1146.833 C 2580.199 1150.190, 2584.225 1159.226, 2584.226 1181.545 C 2584.228 1210.405, 2578.838 1221.925, 2553.183 1247.897 C 2546.678 1254.482, 2539.364 1262.189, 2536.928 1265.024 C 2531.667 1271.147, 2524.138 1282.862, 2524.057 1285.050 C 2524.026 1285.903, 2523.571 1287.029, 2523.046 1287.554 C 2522.521 1288.079, 2521.334 1291.432, 2520.409 1295.004 C 2518.985 1300.503, 2518.657 1308.748, 2518.271 1348.701 L 2517.816 1395.903 2533.848 1396.201 L 2549.881 1396.500 2550.256 1349.500 C 2550.551 1312.565, 2550.931 1301.643, 2552.030 1298.500 C 2554.994 1290.027, 2560.306 1282.919, 2574.512 1268.416 C 2582.548 1260.212, 2591.908 1250.054, 2595.312 1245.843 C 2605.060 1233.780, 2611.755 1219.176, 2614.493 1204 C 2614.841 1202.075, 2615.372 1192.625, 2615.674 1183 C 2616.521 1155.997, 2613.303 1141.869, 2603.982 1131.671 C 2599.081 1126.308, 2590.004 1120.649, 2584.472 1119.506 C 2575.254 1117.601, 2565.722 1117.062, 2540.750 1117.033 L 2513 1117 2513.002 1131.250 M 2653.247 1256.750 L 2653.500 1396.500 2705.750 1396.759 L 2758 1397.018 2758 1382.509 L 2758 1368 2720.993 1368 L 2683.986 1368 2684.243 1300.250 L 2684.500 1232.500 2713.250 1232.235 L 2742 1231.969 2742 1217.985 L 2742 1204 2713 1204 L 2684 1204 2684 1175 L 2684 1146 2719 1146 L 2754 1146 2754 1131.500 L 2754 1117 2703.497 1117 L 2652.993 1117 2653.247 1256.750 M 2786 1130.902 L 2786 1145 2803.750 1145.018 C 2838.260 1145.052, 2845.843 1147.126, 2851.219 1158 C 2857.681 1171.072, 2857.038 1197.996, 2849.887 1213.772 C 2846.806 1220.567, 2843.417 1224.667, 2826.962 1241.500 C 2806.617 1262.312, 2802.817 1269.142, 2803.388 1283.874 C 2803.817 1294.934, 2806.222 1300.527, 2821.971 1327.078 C 2822.812 1328.496, 2825.206 1332.546, 2827.291 1336.078 C 2829.375 1339.610, 2831.500 1343.175, 2832.012 1344 C 2833.913 1347.063, 2841.371 1359.569, 2842.449 1361.500 C 2843.602 1363.566, 2852.405 1378.344, 2854.065 1381 C 2854.581 1381.825, 2856.763 1385.576, 2858.914 1389.335 L 2862.826 1396.171 2881.121 1396.044 C 2891.183 1395.975, 2899.520 1395.813, 2899.648 1395.685 C 2899.776 1395.557, 2898.133 1392.538, 2895.997 1388.976 C 2893.861 1385.414, 2891.371 1381.058, 2890.464 1379.296 C 2889.558 1377.534, 2888.182 1375.566, 2887.408 1374.924 C 2886.634 1374.281, 2886 1373.399, 2886 1372.963 C 2886 1372.527, 2882.858 1367.070, 2879.018 1360.835 C 2875.177 1354.601, 2871.311 1348.058, 2870.425 1346.296 C 2869.540 1344.534, 2868.182 1342.566, 2867.408 1341.924 C 2866.634 1341.281, 2866 1340.347, 2866 1339.849 C 2866 1339.351, 2863.300 1334.657, 2860 1329.419 C 2856.700 1324.181, 2854 1319.752, 2854 1319.576 C 2854 1319.401, 2851.013 1314.362, 2847.361 1308.379 C 2839.046 1294.754, 2835 1286.014, 2835 1281.679 C 2835 1276.403, 2838.670 1270.913, 2850 1259.236 C 2868.571 1240.097, 2872.541 1235.282, 2878.229 1225.001 C 2881.776 1218.588, 2884.218 1211.319, 2885.788 1202.500 C 2886.180 1200.300, 2886.466 1189.275, 2886.425 1178 C 2886.354 1158.541, 2886.214 1157.086, 2883.660 1149.341 C 2881.023 1141.342, 2875.685 1132.261, 2871.573 1128.778 C 2867.186 1125.062, 2860.276 1121.576, 2853.527 1119.673 C 2847.431 1117.954, 2842.491 1117.633, 2816.250 1117.248 L 2786 1116.805 2786 1130.902 M 2968.500 1117.999 C 2961.513 1118.765, 2949.856 1122.336, 2945.394 1125.077 C 2941.480 1127.482, 2933.698 1135.749, 2931.685 1139.642 C 2925.561 1151.486, 2922.931 1173.632, 2925.006 1195.887 C 2927.262 1220.076, 2933.798 1233.626, 2954.242 1256.500 C 2963.770 1267.162, 2975.708 1282.459, 2978.780 1287.944 C 2987 1302.620, 2989.149 1311.795, 2989.100 1332 C 2989.054 1351.184, 2985.826 1360.424, 2977.500 1365.204 C 2973.653 1367.412, 2972.498 1367.512, 2947.250 1367.824 L 2921 1368.147 2921 1382.074 L 2921 1396 2939.750 1396.167 C 2971.735 1396.451, 2978.566 1395.858, 2990.500 1391.764 C 3005.563 1386.597, 3014.714 1375.542, 3018.607 1357.809 C 3022.022 1342.257, 3021.144 1305.127, 3017.117 1294.750 C 3016.530 1293.237, 3016.240 1292, 3016.474 1292 C 3017.111 1292, 3014.337 1285.400, 3010.274 1277.250 C 3008.287 1273.263, 3006.287 1270, 3005.830 1270 C 3005.374 1270, 3005 1269.502, 3005 1268.894 C 3005 1268.286, 3003.868 1266.374, 3002.485 1264.644 C 3001.102 1262.915, 2999.632 1261.050, 2999.220 1260.500 C 2994.248 1253.868, 2975.803 1232.501, 2972.459 1229.500 C 2967.699 1225.227, 2960.628 1212.102, 2957.914 1202.500 C 2955.676 1194.584, 2955.968 1167.026, 2958.364 1160.150 C 2962.627 1147.910, 2968.757 1145.699, 2998.745 1145.582 L 3019.990 1145.500 3019.995 1131.219 L 3020 1116.938 2997.250 1117.139 C 2984.738 1117.250, 2971.800 1117.637, 2968.500 1117.999 M 2403.470 1143.241 C 2396.475 1144.708, 2391.511 1148.638, 2387.358 1156 C 2381.613 1166.183, 2381.138 1174.852, 2381.412 1264.500 C 2381.639 1338.838, 2381.691 1340.671, 2383.797 1348.311 C 2386.479 1358.045, 2390.122 1363.563, 2396.442 1367.467 C 2401.098 1370.344, 2401.895 1370.500, 2411.925 1370.498 C 2423.424 1370.497, 2426.545 1369.501, 2431.537 1364.241 C 2438.607 1356.792, 2440.946 1347.808, 2441.885 1324.500 C 2442.733 1303.454, 2442.423 1184.711, 2441.499 1176.500 C 2439.585 1159.486, 2434.795 1149.957, 2425.891 1145.445 C 2420.625 1142.776, 2410.454 1141.777, 2403.470 1143.241" stroke="none" fill="#f48c2c" fill-rule="evenodd"/></svg>